<svg width="39" height="39" viewBox="0 0 39 39" fill="none" xmlns="http://www.w3.org/2000/svg">
<path d="M39 34.125C39 35.4179 38.4864 36.6579 37.5721 37.5721C36.6579 38.4864 35.4179 39 34.125 39H4.875C3.58207 39 2.34209 38.4864 1.42785 37.5721C0.513615 36.6579 0 35.4179 0 34.125V4.875C0 3.58207 0.513615 2.34209 1.42785 1.42785C2.34209 0.513615 3.58207 0 4.875 0L34.125 0C35.4179 0 36.6579 0.513615 37.5721 1.42785C38.4864 2.34209 39 3.58207 39 4.875V34.125ZM28.0312 18.2812H13.9108L19.1441 13.0504C19.373 12.8215 19.5015 12.5111 19.5015 12.1875C19.5015 11.8639 19.373 11.5535 19.1441 11.3246C18.9153 11.0958 18.6049 10.9672 18.2812 10.9672C17.9576 10.9672 17.6472 11.0958 17.4184 11.3246L10.1059 18.6371C9.99238 18.7503 9.90233 18.8848 9.84089 19.0329C9.77945 19.181 9.74782 19.3397 9.74782 19.5C9.74782 19.6603 9.77945 19.819 9.84089 19.9671C9.90233 20.1152 9.99238 20.2497 10.1059 20.3629L17.4184 27.6754C17.6472 27.9042 17.9576 28.0328 18.2812 28.0328C18.6049 28.0328 18.9153 27.9042 19.1441 27.6754C19.373 27.4465 19.5015 27.1361 19.5015 26.8125C19.5015 26.4889 19.373 26.1785 19.1441 25.9496L13.9108 20.7188H28.0312C28.3545 20.7188 28.6645 20.5903 28.893 20.3618C29.1216 20.1332 29.25 19.8232 29.25 19.5C29.25 19.1768 29.1216 18.8668 28.893 18.6382C28.6645 18.4097 28.3545 18.2812 28.0312 18.2812Z" fill="#4EEAC5" fill-opacity="0.4"/>
</svg>
