<svg width="39" height="39" viewBox="0 0 39 39" fill="none" xmlns="http://www.w3.org/2000/svg">
<path d="M0 34.125C0 35.4179 0.513615 36.6579 1.42786 37.5721C2.34209 38.4864 3.58207 39 4.875 39H34.125C35.4179 39 36.6579 38.4864 37.5721 37.5721C38.4864 36.6579 39 35.4179 39 34.125V4.875C39 3.58207 38.4864 2.34209 37.5721 1.42785C36.6579 0.513615 35.4179 0 34.125 0L4.875 0C3.58207 0 2.34209 0.513615 1.42786 1.42785C0.513615 2.34209 0 3.58207 0 4.875V34.125ZM10.9688 18.2812H25.0892L19.8559 13.0504C19.627 12.8215 19.4985 12.5111 19.4985 12.1875C19.4985 11.8639 19.627 11.5535 19.8559 11.3246C20.0847 11.0958 20.3951 10.9672 20.7188 10.9672C21.0424 10.9672 21.3528 11.0958 21.5816 11.3246L28.8941 18.6371C29.0076 18.7503 29.0977 18.8848 29.1591 19.0329C29.2206 19.181 29.2522 19.3397 29.2522 19.5C29.2522 19.6603 29.2206 19.819 29.1591 19.9671C29.0977 20.1152 29.0076 20.2497 28.8941 20.3629L21.5816 27.6754C21.3528 27.9042 21.0424 28.0328 20.7188 28.0328C20.3951 28.0328 20.0847 27.9042 19.8559 27.6754C19.627 27.4465 19.4985 27.1361 19.4985 26.8125C19.4985 26.4889 19.627 26.1785 19.8559 25.9496L25.0892 20.7188H10.9688C10.6455 20.7188 10.3355 20.5903 10.107 20.3618C9.8784 20.1332 9.75 19.8232 9.75 19.5C9.75 19.1768 9.8784 18.8668 10.107 18.6382C10.3355 18.4097 10.6455 18.2812 10.9688 18.2812Z" fill="#4EEAC5" fill-opacity="0.4"/>
</svg>
