<svg width="68" height="45" viewBox="0 0 68 45" fill="none" xmlns="http://www.w3.org/2000/svg">
<rect x="0.75" y="0.5" width="67" height="44" rx="10" fill="#D9D9D9"/>
<rect x="0.75" y="0.5" width="67" height="44" rx="10" fill="#45EB91" fill-opacity="0.94"/>
<path d="M13.438 27.316H17.342V28.5H11.982V17.348H13.438V27.316ZM22.7123 28.644C21.8909 28.644 21.1443 28.4573 20.4723 28.084C19.8109 27.7107 19.2883 27.1827 18.9043 26.5C18.5309 25.8067 18.3443 25.0067 18.3443 24.1C18.3443 23.204 18.5363 22.4147 18.9203 21.732C19.3149 21.0387 19.8483 20.5107 20.5203 20.148C21.1923 19.7747 21.9443 19.588 22.7763 19.588C23.6083 19.588 24.3603 19.7747 25.0323 20.148C25.7043 20.5107 26.2323 21.0333 26.6163 21.716C27.0109 22.3987 27.2083 23.1933 27.2083 24.1C27.2083 25.0067 27.0056 25.8067 26.6003 26.5C26.2056 27.1827 25.6669 27.7107 24.9843 28.084C24.3016 28.4573 23.5443 28.644 22.7123 28.644ZM22.7123 27.364C23.2349 27.364 23.7256 27.2413 24.1843 26.996C24.6429 26.7507 25.0109 26.3827 25.2883 25.892C25.5763 25.4013 25.7203 24.804 25.7203 24.1C25.7203 23.396 25.5816 22.7987 25.3043 22.308C25.0269 21.8173 24.6643 21.4547 24.2163 21.22C23.7683 20.9747 23.2829 20.852 22.7603 20.852C22.2269 20.852 21.7363 20.9747 21.2883 21.22C20.8509 21.4547 20.4989 21.8173 20.2323 22.308C19.9656 22.7987 19.8323 23.396 19.8323 24.1C19.8323 24.8147 19.9603 25.4173 20.2163 25.908C20.4829 26.3987 20.8349 26.7667 21.2723 27.012C21.7096 27.2467 22.1896 27.364 22.7123 27.364ZM32.7386 19.588C33.496 19.588 34.1573 19.7533 34.7226 20.084C35.2986 20.4147 35.7253 20.8307 36.0026 21.332V19.732H37.4746V28.692C37.4746 29.492 37.304 30.2013 36.9626 30.82C36.6213 31.4493 36.1306 31.94 35.4906 32.292C34.8613 32.644 34.1253 32.82 33.2826 32.82C32.1306 32.82 31.1706 32.548 30.4026 32.004C29.6346 31.46 29.1813 30.7187 29.0426 29.78H30.4826C30.6426 30.3133 30.9733 30.74 31.4746 31.06C31.976 31.3907 32.5786 31.556 33.2826 31.556C34.0826 31.556 34.7333 31.3053 35.2346 30.804C35.7466 30.3027 36.0026 29.5987 36.0026 28.692V26.852C35.7146 27.364 35.288 27.7907 34.7226 28.132C34.1573 28.4733 33.496 28.644 32.7386 28.644C31.96 28.644 31.2506 28.452 30.6106 28.068C29.9813 27.684 29.4853 27.1453 29.1226 26.452C28.76 25.7587 28.5786 24.9693 28.5786 24.084C28.5786 23.188 28.76 22.404 29.1226 21.732C29.4853 21.0493 29.9813 20.5213 30.6106 20.148C31.2506 19.7747 31.96 19.588 32.7386 19.588ZM36.0026 24.1C36.0026 23.4387 35.8693 22.8627 35.6026 22.372C35.336 21.8813 34.9733 21.508 34.5146 21.252C34.0666 20.9853 33.5706 20.852 33.0266 20.852C32.4826 20.852 31.9866 20.98 31.5386 21.236C31.0906 21.492 30.7333 21.8653 30.4666 22.356C30.2 22.8467 30.0666 23.4227 30.0666 24.084C30.0666 24.756 30.2 25.3427 30.4666 25.844C30.7333 26.3347 31.0906 26.7133 31.5386 26.98C31.9866 27.236 32.4826 27.364 33.0266 27.364C33.5706 27.364 34.0666 27.236 34.5146 26.98C34.9733 26.7133 35.336 26.3347 35.6026 25.844C35.8693 25.3427 36.0026 24.7613 36.0026 24.1ZM44.9528 18.308C44.6754 18.308 44.4408 18.212 44.2488 18.02C44.0568 17.828 43.9608 17.5933 43.9608 17.316C43.9608 17.0387 44.0568 16.804 44.2488 16.612C44.4408 16.42 44.6754 16.324 44.9528 16.324C45.2194 16.324 45.4434 16.42 45.6248 16.612C45.8168 16.804 45.9128 17.0387 45.9128 17.316C45.9128 17.5933 45.8168 17.828 45.6248 18.02C45.4434 18.212 45.2194 18.308 44.9528 18.308ZM45.6568 19.732V28.5H44.2008V19.732H45.6568ZM52.4103 19.572C53.4769 19.572 54.3409 19.8973 55.0023 20.548C55.6636 21.188 55.9943 22.116 55.9943 23.332V28.5H54.5543V23.54C54.5543 22.6653 54.3356 21.9987 53.8983 21.54C53.4609 21.0707 52.8636 20.836 52.1063 20.836C51.3383 20.836 50.7249 21.076 50.2663 21.556C49.8183 22.036 49.5943 22.7347 49.5943 23.652V28.5H48.1383V19.732H49.5943V20.98C49.8823 20.532 50.2716 20.1853 50.7623 19.94C51.2636 19.6947 51.8129 19.572 52.4103 19.572Z" fill="white"/>
</svg>
