<svg width="74" height="45" viewBox="0 0 74 45" fill="none" xmlns="http://www.w3.org/2000/svg">
<rect x="0.75" y="0.5" width="73" height="44" rx="10" fill="#4EEAC5" fill-opacity="0.96"/>
<path d="M15.518 28.612C14.782 28.612 14.1207 28.484 13.534 28.228C12.958 27.9613 12.5047 27.5987 12.174 27.14C11.8433 26.6707 11.6727 26.132 11.662 25.524H13.214C13.2673 26.0467 13.4807 26.4893 13.854 26.852C14.238 27.204 14.7927 27.38 15.518 27.38C16.2113 27.38 16.7553 27.2093 17.15 26.868C17.5553 26.516 17.758 26.068 17.758 25.524C17.758 25.0973 17.6407 24.7507 17.406 24.484C17.1713 24.2173 16.878 24.0147 16.526 23.876C16.174 23.7373 15.6993 23.588 15.102 23.428C14.366 23.236 13.774 23.044 13.326 22.852C12.8887 22.66 12.51 22.3613 12.19 21.956C11.8807 21.54 11.726 20.9853 11.726 20.292C11.726 19.684 11.8807 19.1453 12.19 18.676C12.4993 18.2067 12.9313 17.844 13.486 17.588C14.0513 17.332 14.6967 17.204 15.422 17.204C16.4673 17.204 17.3207 17.4653 17.982 17.988C18.654 18.5107 19.0327 19.204 19.118 20.068H17.518C17.4647 19.6413 17.2407 19.268 16.846 18.948C16.4513 18.6173 15.9287 18.452 15.278 18.452C14.67 18.452 14.174 18.612 13.79 18.932C13.406 19.2413 13.214 19.6787 13.214 20.244C13.214 20.6493 13.326 20.98 13.55 21.236C13.7847 21.492 14.0673 21.6893 14.398 21.828C14.7393 21.956 15.214 22.1053 15.822 22.276C16.558 22.4787 17.15 22.6813 17.598 22.884C18.046 23.076 18.43 23.38 18.75 23.796C19.07 24.2013 19.23 24.756 19.23 25.46C19.23 26.004 19.086 26.516 18.798 26.996C18.51 27.476 18.0833 27.8653 17.518 28.164C16.9527 28.4627 16.286 28.612 15.518 28.612ZM22.1246 18.308C21.8473 18.308 21.6126 18.212 21.4206 18.02C21.2286 17.828 21.1326 17.5933 21.1326 17.316C21.1326 17.0387 21.2286 16.804 21.4206 16.612C21.6126 16.42 21.8473 16.324 22.1246 16.324C22.3913 16.324 22.6153 16.42 22.7966 16.612C22.9886 16.804 23.0846 17.0387 23.0846 17.316C23.0846 17.5933 22.9886 17.828 22.7966 18.02C22.6153 18.212 22.3913 18.308 22.1246 18.308ZM22.8286 19.732V28.5H21.3726V19.732H22.8286ZM28.9261 19.588C29.6835 19.588 30.3448 19.7533 30.9101 20.084C31.4861 20.4147 31.9128 20.8307 32.1901 21.332V19.732H33.6621V28.692C33.6621 29.492 33.4915 30.2013 33.1501 30.82C32.8088 31.4493 32.3181 31.94 31.6781 32.292C31.0488 32.644 30.3128 32.82 29.4701 32.82C28.3181 32.82 27.3581 32.548 26.5901 32.004C25.8221 31.46 25.3688 30.7187 25.2301 29.78H26.6701C26.8301 30.3133 27.1608 30.74 27.6621 31.06C28.1635 31.3907 28.7661 31.556 29.4701 31.556C30.2701 31.556 30.9208 31.3053 31.4221 30.804C31.9341 30.3027 32.1901 29.5987 32.1901 28.692V26.852C31.9021 27.364 31.4755 27.7907 30.9101 28.132C30.3448 28.4733 29.6835 28.644 28.9261 28.644C28.1475 28.644 27.4381 28.452 26.7981 28.068C26.1688 27.684 25.6728 27.1453 25.3101 26.452C24.9475 25.7587 24.7661 24.9693 24.7661 24.084C24.7661 23.188 24.9475 22.404 25.3101 21.732C25.6728 21.0493 26.1688 20.5213 26.7981 20.148C27.4381 19.7747 28.1475 19.588 28.9261 19.588ZM32.1901 24.1C32.1901 23.4387 32.0568 22.8627 31.7901 22.372C31.5235 21.8813 31.1608 21.508 30.7021 21.252C30.2541 20.9853 29.7581 20.852 29.2141 20.852C28.6701 20.852 28.1741 20.98 27.7261 21.236C27.2781 21.492 26.9208 21.8653 26.6541 22.356C26.3875 22.8467 26.2541 23.4227 26.2541 24.084C26.2541 24.756 26.3875 25.3427 26.6541 25.844C26.9208 26.3347 27.2781 26.7133 27.7261 26.98C28.1741 27.236 28.6701 27.364 29.2141 27.364C29.7581 27.364 30.2541 27.236 30.7021 26.98C31.1608 26.7133 31.5235 26.3347 31.7901 25.844C32.0568 25.3427 32.1901 24.7613 32.1901 24.1ZM40.3946 19.572C41.4613 19.572 42.3253 19.8973 42.9866 20.548C43.648 21.188 43.9786 22.116 43.9786 23.332V28.5H42.5386V23.54C42.5386 22.6653 42.32 21.9987 41.8826 21.54C41.4453 21.0707 40.848 20.836 40.0906 20.836C39.3226 20.836 38.7093 21.076 38.2506 21.556C37.8026 22.036 37.5786 22.7347 37.5786 23.652V28.5H36.1226V19.732H37.5786V20.98C37.8666 20.532 38.256 20.1853 38.7466 19.94C39.248 19.6947 39.7973 19.572 40.3946 19.572ZM52.0786 17.348V28.5H50.6226V17.348H52.0786ZM58.8321 19.572C59.8988 19.572 60.7628 19.8973 61.4241 20.548C62.0855 21.188 62.4161 22.116 62.4161 23.332V28.5H60.9761V23.54C60.9761 22.6653 60.7575 21.9987 60.3201 21.54C59.8828 21.0707 59.2855 20.836 58.5281 20.836C57.7601 20.836 57.1468 21.076 56.6881 21.556C56.2401 22.036 56.0161 22.7347 56.0161 23.652V28.5H54.5601V19.732H56.0161V20.98C56.3041 20.532 56.6935 20.1853 57.1841 19.94C57.6855 19.6947 58.2348 19.572 58.8321 19.572Z" fill="#605555" fill-opacity="0.5"/>
</svg>
