<svg width="484" height="386" viewBox="0 0 484 386" fill="none" xmlns="http://www.w3.org/2000/svg">
<path d="M190.037 165.722C189.082 163.315 188.097 162.763 186.078 162.257H181.129C181.345 160.141 181.392 158.906 180.139 155.822C178.548 153.701 177.285 152.901 174.2 152.357H171.231C171.231 152.357 165.479 151.998 163.313 154.337L161.333 159.782L159.849 160.277L153.415 159.782C148.983 159.965 146.969 160.498 145.992 163.847C145.367 167.464 145.196 169.441 145.992 172.652C147.003 175.513 147.742 176.546 149.456 177.107L154.9 178.097H156.879C157.88 181.419 158.826 182.864 161.333 184.532C161.333 184.532 164.303 186.017 168.757 186.512C173.211 187.007 177.17 184.532 177.17 184.532C180.422 182.635 181.989 181.431 182.613 178.097C184.933 177.324 186.078 178.097 188.552 176.117C190.541 174.095 190.932 173.028 191.203 171.167L190.037 165.722Z" fill="#CFDBD1"/>
<path d="M258.331 71.1766C258.122 69.3684 258.277 68.4758 259.321 67.2166C260.949 65.799 261.931 65.637 263.775 66.2265C264.927 67.0206 265.538 67.5709 266.249 69.6916C266.143 71.4978 266.173 72.5166 263.28 74.1466C263.28 74.1466 260.919 74.459 259.816 73.6516C258.907 72.9859 258.331 71.1766 258.331 71.1766Z" fill="#020E0E"/>
<path d="M225.174 78.1067C224.184 75.6316 226.164 73.1566 228.143 72.1666C230.123 71.1766 231.76 71.7039 233.092 73.1566C234.169 74.3313 234.082 77.1167 234.082 77.1167C233.762 79.6296 232.646 80.272 229.628 80.5817C227.511 80.7226 226.164 80.5817 225.174 78.1067Z" fill="#0B0000"/>
<path d="M217.256 65.7315H219.235C222.39 63.2792 224.487 62.7912 228.638 63.2565L229.133 61.2765C226.608 60.3142 224.184 59.7919 222.204 60.2865C220.225 60.7811 217.393 63.5605 217.256 65.7315Z" fill="#0B0000"/>
<path fill-rule="evenodd" clip-rule="evenodd" d="M276.147 77.6117C279.739 72.4518 280.578 68.7426 280.106 60.7811C275.864 54.5225 273.216 51.7723 267.239 50.386C261.227 50.1348 258.312 50.8054 253.877 53.3564C251.229 56.0455 249.846 57.8579 247.939 62.7615V69.6916L243.485 70.6816C242.473 67.4417 241.742 65.8746 240.02 63.7515C237.424 61.057 235.916 59.967 233.092 58.8015C230.846 58.0105 229.223 57.6597 225.174 57.3164C221.111 58.1915 219.134 58.9305 216.266 60.7811C213.898 62.8595 210.822 66.7215 210.822 66.7215C209.633 69.7201 209.316 71.6722 209.337 75.6316V78.6017L194.934 75.6316C195.402 76.2684 195.821 76.9229 196.199 77.6117L209.337 80.5817C211.45 83.6598 212.683 85.3892 215.276 88.5018C219.577 91.0898 221.967 92.1486 226.164 92.9568C230.528 92.3903 232.846 91.8222 236.556 89.9868C240.579 86.1602 241.943 84.1173 243.485 80.5817L243.98 72.1666L247.939 71.1766C249.872 74.4863 251.049 76.2903 253.877 79.0967C257.322 81.9291 259.641 82.9131 264.765 83.0567C269.985 82.2746 272.571 81.2446 276.147 77.6117ZM272.188 79.0967C269.174 80.4775 267.563 80.8354 264.765 81.0767C261.406 81.3265 259.472 80.8049 255.857 78.6017C253.455 77.1109 252.372 75.4823 250.413 72.6616C249.362 70.8732 249.229 68.9825 248.928 65.7315C249.405 61.7236 250.293 60.1329 251.898 57.3164C254.121 54.7557 255.756 53.6811 259.321 52.3664C262.943 51.7232 264.895 51.7463 268.229 52.3664C273.312 54.8216 275.345 56.6273 278.127 60.2865H270.703L271.693 61.2765H278.622C278.902 65.1546 278.739 67.3215 278.127 71.1766C277.303 73.2912 276.461 74.7534 275.157 76.2353C274.369 77.1322 273.412 78.0364 272.188 79.0967ZM241.505 69.6916C242.243 72.9003 242.259 75.4618 242 80.5817C239.483 85.1146 237.457 87.1056 233.092 89.9868C228.939 90.9543 226.526 90.8356 222.204 90.4818C218.241 88.9425 216.682 87.316 213.791 84.5417C211.237 81.6359 210.905 79.5552 210.822 75.6316C210.615 70.5882 211.651 68.9161 213.297 65.7315C215.515 63.2036 217.052 61.8787 220.72 59.7915C224.207 58.6363 226.247 58.5026 230.123 59.2965C233.219 60.493 234.744 61.3408 237.051 63.2565C239.259 65.2209 240.315 66.5401 241.505 69.6916Z" fill="black"/>
<path d="M255.362 59.2965C257.689 56.4244 259.666 55.6961 264.27 55.8314L264.27 55.8046C264.277 55.2991 264.282 55.0076 263.775 54.3464C261.059 53.7341 259.542 53.7216 256.847 54.8414C254.566 56.611 254.075 57.5829 253.877 59.2965H255.362Z" fill="black"/>
<path d="M178.16 66.7215C182.499 66.6039 185.045 67.1604 190.037 70.6816C191.169 71.6171 192.15 72.5001 193.006 73.3783C198.637 67.588 198.962 57.0298 200.429 40.4863L215.276 50.1114C215.276 50.1114 219.209 51.8862 220.72 50.386C221.71 49.4029 221.71 49.3964 221.71 46.9837V46.9213C221.71 44.4463 219.73 40.4863 219.73 40.4863L228.638 42.9613C237.046 44.2274 241.968 44.7708 252.393 44.4463C258.115 44.3647 261.095 44.0918 262.785 43.2505C263.45 42.9196 263.915 42.5009 264.27 41.9713C263.661 37.1679 262.472 33.749 260.311 27.6161C256.436 20.6668 253.112 17.9219 246.454 13.756C237.573 10.253 232.335 9.43972 222.699 9.30093C204.568 11.8257 198.228 15.0824 188.552 21.6755C180.542 29.4416 179.168 35.2997 176.769 45.5279L176.675 45.9313C176.046 55.4509 176.388 59.9655 178.16 66.7215Z" fill="black"/>
<path d="M246.454 95.9269C242.988 97.4075 241.408 98.518 241.01 102.362C240.813 106.062 241.274 107.383 243.485 108.302C245.527 109.007 246.799 108.999 249.423 107.807C252.146 105.889 252.334 104.476 252.888 102.362L253.877 97.4119C257.087 95.9365 257.093 95.0916 257.299 93.72C256.942 94.6623 254.485 96.3091 250.661 96.4113C252.441 97.3863 252.803 98.1594 252.393 99.8869C251.907 102.185 251.39 103.384 249.918 105.332C249.918 105.332 247.454 107.8 245.464 107.807C243.907 107.812 242.189 105.067 242 104.837C242.209 102.081 242.444 101.079 242.99 99.8869C244.544 98.1555 245.716 97.3532 248.434 96.2991C247.8 96.2199 247.139 96.0982 246.454 95.9269Z" fill="black"/>
<path d="M242 104.837C242.189 105.067 243.907 107.812 245.464 107.807C247.454 107.8 249.918 105.332 249.918 105.332C249.918 105.332 248.928 102.857 245.959 102.857C242.99 102.857 242 104.837 242 104.837Z" fill="#D27B8B"/>
<path d="M242.99 99.8869H252.393C252.803 98.1594 252.441 97.3863 250.661 96.4113C249.963 96.43 249.219 96.3971 248.434 96.2991C245.716 97.3532 244.544 98.1555 242.99 99.8869Z" fill="white"/>
<path d="M252.393 99.8869H242.99C242.444 101.079 242.209 102.081 242 104.837C242 104.837 242.99 102.857 245.959 102.857C248.928 102.857 249.918 105.332 249.918 105.332C251.39 103.384 251.907 102.185 252.393 99.8869Z" fill="#271E17"/>
<path d="M244.474 115.232C247.344 114.834 248.16 113.967 249.423 112.262C246.112 112.681 244.269 112.515 241.01 111.272C241.606 112.62 242.107 113.419 244.474 115.232Z" fill="#C98B66"/>
<path d="M246.454 73.1566L254.372 84.0467C254.716 86.9179 253.868 88.0624 249.918 88.9968L248.928 88.5018C248.928 88.5018 252.393 87.0164 252.393 86.0268C252.393 85.0371 249.308 78.5398 246.454 73.1566Z" fill="#C98B66"/>
<path fill-rule="evenodd" clip-rule="evenodd" d="M193.006 104.342C203.609 120.507 210.421 126.344 225.174 127.112C225.174 127.112 222.204 123.647 223.689 121.667C224.579 120.432 226.147 120.663 229.628 121.667L241.505 127.112C241.505 127.112 222.204 114.242 221.215 112.262C220.225 110.282 220.225 109.292 221.215 108.302C222.204 107.312 230.618 109.787 230.618 109.787L253.877 123.024C256.622 122.896 257.747 122.611 258.937 121.667C258.827 119.366 258.843 116.648 259.321 114.737C260.311 110.777 263.314 106.723 268.724 107.312L268.971 112.262C272.723 106.761 275.105 102.642 276.066 97.7939C276.156 97.34 276.233 96.8797 276.298 96.4113C276.678 93.6727 276.63 90.6565 276.147 87.0164V77.6117C272.571 81.2446 269.985 82.2746 264.765 83.0567C259.641 82.9131 257.322 81.9291 253.877 79.0967C251.049 76.2903 249.872 74.4863 247.939 71.1766L243.98 72.1666L243.485 80.5817C241.943 84.1173 240.579 86.1602 236.556 89.9868C232.846 91.8222 230.528 92.3903 226.164 92.9568C221.967 92.1486 219.577 91.0898 215.276 88.5018C212.683 85.3892 211.45 83.6598 209.337 80.5817L196.199 77.6117C197.433 79.8588 198.237 82.4712 198.945 86.0268C199.526 94.8589 197.835 98.6416 193.006 104.342ZM254.372 84.0467L246.454 73.1566C249.308 78.5398 252.393 85.0371 252.393 86.0268C252.393 87.0164 248.928 88.5018 248.928 88.5018L249.918 88.9968C253.868 88.0624 254.716 86.9179 254.372 84.0467ZM241.01 102.362C241.408 98.518 242.988 97.4075 246.454 95.9269C247.139 96.0982 247.8 96.2199 248.434 96.2991C249.219 96.3971 249.963 96.43 250.661 96.4113C254.485 96.3091 256.942 94.6623 257.299 93.72C257.312 93.6328 257.326 93.5435 257.342 93.4518C257.351 93.5319 257.336 93.6222 257.299 93.72C257.093 95.0916 257.087 95.9365 253.877 97.4119L252.888 102.362C252.334 104.476 252.146 105.889 249.423 107.807C246.799 108.999 245.527 109.007 243.485 108.302C241.274 107.383 240.813 106.062 241.01 102.362ZM249.423 112.262C248.16 113.967 247.344 114.834 244.474 115.232C242.107 113.419 241.606 112.62 241.01 111.272C244.269 112.515 246.112 112.681 249.423 112.262Z" fill="#FBC2A4"/>
<path fill-rule="evenodd" clip-rule="evenodd" d="M242 80.5817C242.259 75.4618 242.243 72.9003 241.505 69.6916C240.315 66.5401 239.259 65.2209 237.051 63.2565C234.744 61.3408 233.219 60.493 230.123 59.2965C226.247 58.5026 224.207 58.6363 220.72 59.7915C217.052 61.8787 215.515 63.2036 213.297 65.7315C211.651 68.9161 210.615 70.5882 210.822 75.6316C210.905 79.5552 211.237 81.6359 213.791 84.5417C216.682 87.316 218.241 88.9425 222.204 90.4818C226.526 90.8356 228.939 90.9543 233.092 89.9868C237.457 87.1056 239.483 85.1146 242 80.5817ZM219.235 65.7315H217.256C217.393 63.5605 220.225 60.7811 222.204 60.2865C224.184 59.7919 226.608 60.3142 229.133 61.2765L228.638 63.2565C224.487 62.7912 222.39 63.2792 219.235 65.7315ZM228.143 72.1666C226.164 73.1566 224.184 75.6316 225.174 78.1067C226.164 80.5817 227.511 80.7226 229.628 80.5817C232.646 80.272 233.762 79.6296 234.082 77.1167C234.082 77.1167 234.169 74.3313 233.092 73.1566C231.76 71.7039 230.123 71.1766 228.143 72.1666Z" fill="#F4CCA9"/>
<path fill-rule="evenodd" clip-rule="evenodd" d="M264.765 81.0767C267.563 80.8354 269.174 80.4775 272.188 79.0967C273.412 78.0364 274.369 77.1322 275.157 76.2353C274.315 69.6305 273.414 66.5682 271.693 61.2765L270.703 60.2865L268.229 52.3664C264.895 51.7463 262.943 51.7232 259.321 52.3664C255.756 53.6811 254.121 54.7557 251.898 57.3164C250.293 60.1329 249.405 61.7236 248.928 65.7315C249.229 68.9825 249.362 70.8732 250.413 72.6616C252.372 75.4823 253.455 77.1109 255.857 78.6017C259.472 80.8049 261.406 81.3265 264.765 81.0767ZM264.27 55.8314C259.666 55.6961 257.689 56.4244 255.362 59.2965H253.877C254.075 57.5829 254.566 56.611 256.847 54.8414C259.542 53.7216 261.059 53.7341 263.775 54.3464C264.282 55.0076 264.277 55.2991 264.27 55.8046L264.27 55.8314ZM259.321 67.2166C258.277 68.4758 258.122 69.3684 258.331 71.1766C258.331 71.1766 258.907 72.9859 259.816 73.6516C260.919 74.459 263.28 74.1466 263.28 74.1466C266.173 72.5166 266.143 71.4978 266.249 69.6916C265.538 67.5709 264.927 67.0206 263.775 66.2265C261.931 65.637 260.949 65.799 259.321 67.2166Z" fill="#F4CCA9"/>
<path d="M252.393 44.4463C241.968 44.7708 237.046 44.2274 228.638 42.9613L219.73 40.4863C219.73 40.4863 221.71 44.4463 221.71 46.9213V46.9837C221.71 49.3964 221.71 49.4029 220.72 50.386C219.209 51.8862 215.276 50.1114 215.276 50.1114L200.429 40.4863C198.962 57.0298 198.637 67.588 193.006 73.3783C193.732 74.1232 194.369 74.8646 194.934 75.6316L209.337 78.6017V75.6316C209.316 71.6722 209.633 69.7201 210.822 66.7215C210.822 66.7215 213.898 62.8595 216.266 60.7811C219.134 58.9305 221.111 58.1915 225.174 57.3164C229.223 57.6597 230.846 58.0105 233.092 58.8015C235.916 59.967 237.424 61.057 240.02 63.7515C241.742 65.8746 242.473 67.4417 243.485 70.6816L247.939 69.6916V62.7615C249.846 57.8579 251.229 56.0455 253.877 53.3564C258.312 50.8054 261.227 50.1348 267.239 50.386C266.114 47.2787 265.101 45.7402 262.785 43.2505C261.095 44.0918 258.115 44.3647 252.393 44.4463Z" fill="#F4CCA9"/>
<path d="M150.571 375.11L164.303 358.28L164.798 360.26L150.835 377.09C151.096 378.841 151.457 380.799 151.93 383.03L162.668 369.17L170.146 359.517V339.222L151.93 360.755C151.523 362.148 151.176 363.435 150.908 364.715L166.777 346.895L167.767 347.885L150.571 366.61C150.408 367.74 150.311 368.902 150.293 370.16L156.384 363.23L158.859 362.735L150.352 372.635C150.398 373.414 150.47 374.235 150.571 375.11Z" fill="#A59EB0"/>
<path d="M187.769 322.639C187.913 321.11 188.118 319.505 188.362 317.689L170.146 339.222V359.517L188.362 336.004C188.249 335.315 188.149 334.657 188.061 334.024L180.139 343.925V341.945L187.871 332.539C187.771 331.671 187.695 330.851 187.641 330.064L173.211 346.895V344.915L187.551 328.084C187.528 327.069 187.543 326.092 187.59 325.114L178.654 334.519V332.539L187.769 322.639Z" fill="#A59EB0"/>
<path d="M187.551 328.084L173.211 344.915V346.895L187.641 330.064C187.595 329.383 187.565 328.726 187.551 328.084Z" fill="#313639"/>
<path d="M187.769 322.639L178.654 332.539V334.519L187.59 325.114C187.628 324.297 187.689 323.48 187.769 322.639Z" fill="#313639"/>
<path d="M187.871 332.539L180.139 341.945V343.925L188.061 334.024C187.99 333.513 187.927 333.019 187.871 332.539Z" fill="#313639"/>
<path d="M166.777 346.895L150.908 364.715C150.776 365.344 150.663 365.972 150.571 366.61L167.767 347.885L166.777 346.895Z" fill="#313639"/>
<path d="M150.352 372.635L158.859 362.735L156.384 363.23L150.293 370.16C150.281 370.942 150.3 371.762 150.352 372.635Z" fill="#313639"/>
<path d="M164.303 358.28L150.571 375.11C150.644 375.741 150.731 376.399 150.835 377.09L164.798 360.26L164.303 358.28Z" fill="#313639"/>
<path d="M150.352 372.635C150.3 371.762 150.281 370.942 150.293 370.16H137.084V371.645L150.352 372.635Z" fill="#313639"/>
<path d="M82.6462 378.503C104.598 380.894 119.571 382.398 151.93 383.03C151.457 380.799 151.096 378.841 150.835 377.09L129.166 376.1V374.12L150.571 375.11C150.47 374.235 150.398 373.414 150.352 372.635L137.084 371.645V370.16H150.293C150.311 368.902 150.408 367.74 150.571 366.61L132.135 365.21L132.63 363.725L150.908 364.715C151.176 363.435 151.523 362.148 151.93 360.755C124.866 357.552 108.533 355.853 82.6462 357.983C82.4701 358.773 82.3114 359.53 82.1703 360.26H116.299V361.745H81.9019C81.7592 362.597 81.6431 363.418 81.5537 364.22H105.411V366.2H81.3858C81.3575 366.696 81.3401 367.19 81.3337 367.685C81.3316 367.85 81.3306 368.015 81.3309 368.18L127.681 369.17V371.15L81.3858 370.049C81.4063 370.412 81.4324 370.779 81.4644 371.15L113.329 372.14V374.12L81.6197 372.635C81.6789 373.119 81.7472 373.613 81.8248 374.12L124.217 376.595V378.503L82.1621 376.1C82.3048 376.867 82.4661 377.665 82.6462 378.503Z" fill="#A59EB0"/>
<path d="M150.571 366.61C150.663 365.972 150.776 365.344 150.908 364.715L132.63 363.725L132.135 365.21L150.571 366.61Z" fill="#313639"/>
<path d="M150.835 377.09C150.731 376.399 150.644 375.741 150.571 375.11L129.166 374.12V376.1L150.835 377.09Z" fill="#313639"/>
<path d="M127.681 369.17L81.3309 368.18C81.3321 368.798 81.3503 369.418 81.3858 370.049L127.681 371.15V369.17Z" fill="#313639"/>
<path d="M113.329 372.14L81.4644 371.15C81.5062 371.636 81.558 372.13 81.6197 372.635L113.329 374.12V372.14Z" fill="#313639"/>
<path d="M105.411 364.22H81.5537C81.479 364.89 81.423 365.547 81.3858 366.2H105.411V364.22Z" fill="#313639"/>
<path d="M116.299 360.26H82.1703C82.0723 360.767 81.9828 361.261 81.9019 361.745H116.299V360.26Z" fill="#313639"/>
<path d="M124.217 376.595L81.8248 374.12C81.9225 374.758 82.0349 375.417 82.1621 376.1L124.217 378.503V376.595Z" fill="#313639"/>
<path d="M411.252 287.989V230.568C410.853 228.833 410.116 228.204 407.292 228.093H354.339C351.454 228.838 350.536 229.387 349.885 230.568V317.689H341.472H332.07C331.767 318.03 331.482 318.36 331.217 318.679C328.029 322.529 327.69 324.968 332.07 329.074H411.252H426.593C426.593 329.074 430.161 325.818 430.057 323.134L428.45 319.669C427.544 318.516 426.593 317.689 426.593 317.689H411.252V287.989Z" fill="#CFDBD1"/>
<path d="M349.885 230.568C350.536 229.387 351.454 228.838 354.339 228.093H345.431C342.776 228.773 342.309 229.416 341.481 230.556L341.472 230.568V287.989V317.689H349.885V230.568Z" fill="#90A9AE"/>
<path d="M332.07 329.074C327.69 324.968 328.029 322.529 331.217 318.679H317.718C317.18 319.201 316.699 319.692 316.284 320.164C313.719 323.079 313.633 325.245 317.718 329.074H332.07Z" fill="#90A9AE"/>
<path fill-rule="evenodd" clip-rule="evenodd" d="M157.374 240.631C159.435 239.198 159.908 238.16 159.354 236.013C159.003 234.261 158.59 233.202 156.879 232.549C156.088 230.307 156.101 228.971 156.879 226.479L157.869 225.123C164.67 226.215 168.929 226.761 180.634 227.103C198.208 227.349 208.071 226.627 222.856 225.543C224.699 225.408 226.618 225.268 228.638 225.123C228.634 225.665 228.631 226.192 228.627 226.707C228.58 233.896 228.548 238.726 227.371 247.894C227.169 249.467 226.934 251.169 226.658 253.032C224.982 261.784 221.526 264.586 214.286 268.683C207.368 271.274 202.784 272.099 193.006 272.148C183.993 271.899 179.892 271.132 172.716 269.673C168.158 267.553 165.328 265.516 162.818 262.399C161.478 260.736 160.23 258.764 158.859 256.308L158.709 255.319L158.364 253.032C158.689 252.814 159.019 252.586 159.354 252.348C160.826 250.298 161.26 248.863 160.838 245.418C159.923 243.948 159.166 243.31 157.374 243.013V240.963V240.631Z" fill="#CFDBD1"/>
<path d="M136.094 233.538C143.423 231.352 147.544 230.787 154.9 232.053C155.706 232.186 156.354 232.348 156.879 232.549C156.088 230.307 156.101 228.971 156.879 226.479C154.754 226.041 153.347 226.02 150.446 226.479C148.097 229.12 144.73 230.884 136.094 233.538Z" fill="#CFDBD1"/>
<path d="M156.879 240.963L140.053 244.428L156.879 242.943C157.053 242.964 157.217 242.988 157.374 243.013V240.963V240.631C157.218 240.739 157.054 240.85 156.879 240.963Z" fill="#4B7DAE"/>
<path d="M141.043 259.773H151.93C154.473 260.015 155.53 260.469 156.879 261.753L157.869 262.663C160.31 263.127 161.459 263.003 162.818 262.399C161.478 260.736 160.23 258.764 158.859 256.308L158.709 255.319L154.9 255.105C150.685 257.311 146.763 258.222 141.043 259.773Z" fill="#CFDBD1"/>
<path d="M86.6053 217.698C63.7038 237.35 53.103 246.636 49.4888 251.358C58.7366 248.835 65.7476 246.146 73.2434 244.113C90.4471 232.869 100.003 226.627 115.309 216.708C115.713 216.512 116.889 215.24 117.288 215.718C117.639 216.137 118.278 216.708 118.278 216.708L118.125 233.538C120.927 232.011 123.59 230.508 126.196 229.036C126.196 229.036 126.196 209.283 125.207 197.403C124.217 185.522 123.227 179.087 122.732 178.097C122.237 177.107 120.258 198.888 120.258 198.888C107.776 202.709 100.084 208.553 86.6053 217.698Z" fill="#1A567A"/>
<path d="M56.9121 202.848C70.7689 191.462 78.1922 182.057 91.5542 174.137C102.815 164.955 110.284 160.065 128.176 152.357C128.176 152.357 131.64 151.367 133.125 154.337C134.609 157.307 132.135 159.782 132.135 159.782C118.585 165.752 111.287 169.69 99.4724 179.087C84.1705 188.312 76.7076 198.888 62.3558 208.788C62.3558 208.788 59.3865 210.273 57.407 208.293C55.4274 206.313 56.9121 202.848 56.9121 202.848Z" fill="#CFDBD1"/>
<path d="M144.012 149.882C143.889 147.429 144.376 146.374 145.992 144.932C147.84 143.858 148.932 143.587 150.941 143.447C153.147 143.197 154.346 143.37 156.384 144.437C156.384 144.437 158.078 146.759 157.869 148.397C155.576 152.75 153.43 154.078 147.971 154.337C145.647 154.447 144.012 149.882 144.012 149.882Z" fill="#CFDBD1"/>
<path d="M0 273.138C4.21546 283.117 8.96489 286.852 21.7751 289.969L21.8867 289.987C26.7535 290.801 30.9846 291.509 35.137 292.053C44.8827 293.33 54.1949 293.707 70.274 292.444C81.8861 290.887 87.6903 289.443 94.5235 284.029C94.5235 284.029 92.4175 279.815 90.7062 274.129C78.6045 278.704 70.7268 280.487 54.4376 282.049C39.0014 282.823 30.8829 282.354 17.3211 280.069C9.70516 278.722 5.83058 277.33 0 273.138Z" fill="#1A567A"/>
<path fill-rule="evenodd" clip-rule="evenodd" d="M166.777 135.032C159.754 135.954 152.816 137.405 145.992 139.313C106.415 150.376 70.6649 176.785 44.3728 204.333C41.1485 207.711 38.0665 211.106 35.137 214.493C32.0543 218.056 29.1406 221.61 26.4081 225.123C11.8746 243.807 2.46487 261.343 0 273.138C5.83058 277.33 9.70516 278.722 17.3211 280.069C30.8829 282.354 39.0014 282.823 54.4376 282.049C70.7268 280.487 78.6045 278.704 90.7062 274.129C89.6661 270.673 88.7719 266.673 88.5849 262.743C88.09 252.348 92.544 240.963 92.544 240.963C85.0107 241.382 78.9848 242.555 73.2434 244.113C65.7476 246.146 58.7366 248.835 49.4888 251.358C53.103 246.636 63.7038 237.35 86.6053 217.698C100.084 208.553 107.776 202.709 120.258 198.888C120.258 198.888 122.237 177.107 122.732 178.097C123.227 179.087 124.217 185.522 125.207 197.403C126.196 209.283 126.196 229.036 126.196 229.036L126.472 228.88C134.223 224.502 141.494 220.395 150.446 216.708L151.93 219.183C152.714 221.503 152.659 222.803 151.93 225.123C151.435 225.603 150.947 226.052 150.446 226.479C153.347 226.02 154.754 226.041 156.879 226.479L157.869 225.123H223.689L226.658 204.333L254.637 206.313C254.225 200.823 253.818 194.951 253.382 188.549L252.393 188.988L248.434 177.603L259.321 171.662C252.437 170.551 247.091 167.857 241.505 163.847C235.769 168.679 232.222 170.969 225.174 174.137C220.195 175.454 217.136 176.048 209.832 176.117C202.638 175.722 198.62 175.152 191.521 172.652L191.203 171.167C190.932 173.028 190.541 174.095 188.552 176.117C186.078 178.097 184.933 177.324 182.613 178.097C181.989 181.431 180.422 182.635 177.17 184.532C177.17 184.532 173.211 187.007 168.757 186.512C164.303 186.017 161.333 184.532 161.333 184.532C158.826 182.864 157.88 181.419 156.879 178.097H154.9L149.456 177.107C147.742 176.546 147.003 175.513 145.992 172.652C145.196 169.441 145.367 167.464 145.992 163.847C146.969 160.498 148.983 159.965 153.415 159.782L159.849 160.277L161.333 159.782C161.333 159.782 161.775 155.997 163.313 154.337C165.479 151.998 171.231 152.357 171.231 152.357C167.734 146.25 167.277 142.261 166.777 135.032ZM145.992 144.932C144.376 146.374 143.889 147.429 144.012 149.882C144.012 149.882 145.647 154.447 147.971 154.337C153.43 154.078 155.576 152.75 157.869 148.397C158.078 146.759 156.384 144.437 156.384 144.437C154.346 143.37 153.147 143.197 150.941 143.447C148.932 143.587 147.84 143.858 145.992 144.932ZM194.986 189.977C192.19 190.408 190.783 191.39 188.552 194.433C187.582 197.912 187.235 199.863 188.552 203.343C190.664 205.989 192.011 207.106 194.986 207.798H197.955C200.154 210.359 201.451 211.628 204.389 212.253C207.442 211.907 208.629 211.353 209.832 209.778C211.22 207.815 211.437 206.623 210.822 204.333C213.924 202.48 214.958 201.298 215.276 198.888C215.799 196.141 215.504 194.642 213.791 191.957C211.843 190.263 210.642 189.651 208.348 188.987C204.296 188.501 203.071 189.347 201.914 191.957C200.071 190.191 198.695 189.593 194.986 189.977ZM91.5542 174.137C78.1922 182.057 70.7689 191.462 56.9121 202.848C56.9121 202.848 55.4274 206.313 57.407 208.293C59.3865 210.273 62.3558 208.788 62.3558 208.788C76.7076 198.888 84.1705 188.312 99.4724 179.087C111.287 169.69 118.585 165.752 132.135 159.782C132.135 159.782 134.609 157.307 133.125 154.337C131.64 151.367 128.176 152.357 128.176 152.357C110.284 160.065 102.815 164.955 91.5542 174.137Z" fill="#4B7DAE"/>
<path d="M234.128 158.053C234.203 158.17 234.009 158.463 233.587 158.869C231.572 160.806 224.351 165.329 216.266 165.722C206.254 166.209 196.47 163.247 196.47 163.247C196.47 163.247 185.497 157.56 181.129 151.367C177.216 145.821 175.19 135.032 175.19 135.032H166.777C167.277 142.261 167.734 146.25 171.231 152.357H174.2C177.285 152.901 178.548 153.701 180.139 155.822C181.392 158.906 181.345 160.141 181.129 162.257H186.078C188.097 162.763 189.082 163.315 190.037 165.722L191.203 171.167L191.521 172.652C198.62 175.152 202.638 175.722 209.832 176.117C217.136 176.048 220.195 175.454 225.174 174.137C232.222 170.969 235.769 168.679 241.505 163.847C239.135 162.146 236.721 160.208 234.128 158.053Z" fill="#1A567A"/>
<path d="M241.505 163.847C247.091 167.857 252.437 170.551 259.321 171.662L262.312 169.683L262.29 167.208C254.776 166.995 250.213 166.235 241.505 163.847Z" fill="#C98B66"/>
<path d="M225.174 127.112C210.421 126.344 203.609 120.507 193.006 104.342L192.511 106.702C192.836 107.27 193.138 107.799 193.429 108.302C194.987 110.989 196.239 112.941 198.945 116.222C201.366 119.127 202.771 120.524 205.378 122.657C212.201 126.887 216.379 127.965 224.184 128.597L228.638 133.547C226.918 134.307 226.2 135.001 225.174 136.517C225.038 138.855 225.056 140.072 226.164 141.187C226.448 141.165 226.735 141.141 227.024 141.115C226.961 141.025 226.898 140.937 226.836 140.85C226.03 139.715 225.376 138.796 226.164 136.517C226.764 134.78 230.235 134.958 232.387 135.069C233.274 135.115 233.938 135.149 234.082 135.032C230.621 132.667 228.588 131.177 225.174 127.112Z" fill="#6F411F"/>
<path d="M234.082 158.015C232.843 156.985 231.562 155.905 230.226 154.779C228.929 153.685 227.579 152.547 226.164 151.367C225.012 149.423 224.547 148.151 224.184 145.427C225.608 144.343 226.461 143.889 228.143 143.447L228.638 142.952C228.638 142.952 227.789 142.208 227.024 141.115C226.735 141.141 226.448 141.165 226.164 141.187V142.457C224.264 142.16 223.691 142.962 223.194 145.427C222.803 148.505 223.218 149.456 224.184 150.872C227.868 154.408 229.928 156.257 233.587 158.869C234.009 158.463 234.203 158.17 234.128 158.053L234.082 158.015Z" fill="#6F411F"/>
<path d="M189.382 128.102C189.003 127.778 188.62 127.448 188.233 127.112L186.78 134.042L186.573 135.032H187.562L189.382 128.102Z" fill="#6F411F"/>
<path d="M192.511 106.702L188.233 127.112C188.62 127.448 189.003 127.778 189.382 128.102L193.429 108.302C193.138 107.799 192.836 107.27 192.511 106.702Z" fill="#6F411F"/>
<path d="M175.19 135.032H186.573L186.78 134.042L175.19 135.032Z" fill="#6F411F"/>
<path d="M226.164 141.187C225.056 140.072 225.038 138.855 225.174 136.517C226.2 135.001 226.918 134.307 228.638 133.547L224.184 128.597C216.379 127.965 212.201 126.887 205.378 122.657C195.085 125.429 190.425 127.442 189.382 128.102C192.435 130.71 195.23 132.907 197.955 134.717C206.253 140.23 213.896 142.159 226.164 141.187Z" fill="#F1A677"/>
<path d="M205.378 122.657C202.771 120.524 201.366 119.127 198.945 116.222C196.239 112.941 194.987 110.989 193.429 108.302L189.382 128.102C190.425 127.442 195.085 125.429 205.378 122.657Z" fill="#F1A677"/>
<path d="M189.382 128.102L187.562 135.032L197.955 134.717C195.23 132.907 192.435 130.71 189.382 128.102Z" fill="#EFB58D"/>
<path d="M196.47 163.247C196.47 163.247 206.254 166.209 216.266 165.722C224.351 165.329 231.572 160.806 233.587 158.869C229.928 156.257 227.868 154.408 224.184 150.872C223.218 149.456 222.803 148.505 223.194 145.427C223.691 142.962 224.264 142.16 226.164 142.457V141.187C213.896 142.159 206.253 140.23 197.955 134.717L187.562 135.032H186.573H175.19C175.19 135.032 177.216 145.821 181.129 151.367C185.497 157.56 196.47 163.247 196.47 163.247Z" fill="#EFB58D"/>
<path d="M225.174 127.112C228.588 131.177 230.621 132.667 234.082 135.032L226.164 127.112C224.398 124.933 223.765 123.799 224.184 122.162C226.126 121.446 227.213 121.601 229.133 122.657L242 128.102L242.99 127.112L222.204 111.767C221.423 110.72 221.406 110.054 221.71 108.797C224.98 108.876 226.827 109.531 230.123 110.777L253.877 123.024L230.618 109.787C230.618 109.787 222.204 107.312 221.215 108.302C220.225 109.292 220.225 110.282 221.215 112.262C222.204 114.242 241.505 127.112 241.505 127.112L229.628 121.667C226.147 120.663 224.579 120.432 223.689 121.667C222.204 123.647 225.174 127.112 225.174 127.112Z" fill="#6F411F"/>
<path d="M253.877 123.024L259.321 126.122C259.321 126.122 259.056 124.134 258.937 121.667C257.747 122.611 256.622 122.896 253.877 123.024Z" fill="#6F411F"/>
<path d="M269.714 127.112L269.169 116.222L268.971 112.262L268.952 113.252L268.724 124.637L269.714 127.112Z" fill="#6F411F"/>
<path d="M268.724 107.312C263.314 106.723 260.311 110.777 259.321 114.737C258.843 116.648 258.827 119.366 258.937 121.667C259.056 124.134 259.321 126.122 259.321 126.122L260.806 114.242C262.562 109.453 264.665 108.723 268.082 107.536C268.22 107.488 268.36 107.439 268.502 107.389C268.575 107.364 268.649 107.338 268.724 107.312Z" fill="#6F411F"/>
<path d="M276.066 97.7939C275.105 102.642 272.723 106.761 268.971 112.262L269.169 116.222L273.673 106.817C275.475 103.13 275.569 100.995 276.066 97.7939Z" fill="#6F411F"/>
<path fill-rule="evenodd" clip-rule="evenodd" d="M232.387 135.069C233.274 135.115 233.938 135.149 234.082 135.032L226.164 127.112C224.398 124.933 223.765 123.799 224.184 122.162C226.126 121.446 227.213 121.601 229.133 122.657L242 128.102L242.99 127.112L222.204 111.767C221.423 110.72 221.406 110.054 221.71 108.797C224.98 108.876 226.827 109.531 230.123 110.777L253.877 123.024L259.321 126.122L260.806 114.242C262.562 109.453 264.665 108.723 268.082 107.536C268.22 107.488 268.36 107.439 268.502 107.389L268.952 113.252L268.724 124.637L269.714 127.112C265.466 127.345 263.749 128.314 262.29 132.062V167.208C254.776 166.995 250.213 166.235 241.505 163.847C239.135 162.146 236.721 160.208 234.128 158.053C234.118 158.037 234.102 158.024 234.082 158.015C232.843 156.985 231.562 155.905 230.226 154.779C228.929 153.685 227.579 152.547 226.164 151.367C225.012 149.423 224.547 148.151 224.184 145.427C225.608 144.343 226.461 143.889 228.143 143.447L228.638 142.952C228.638 142.952 227.789 142.208 227.024 141.115C226.961 141.025 226.898 140.937 226.836 140.85C226.03 139.715 225.376 138.796 226.164 136.517C226.764 134.78 230.235 134.958 232.387 135.069Z" fill="#FBC2A4"/>
<path d="M268.971 112.262L268.724 107.312L268.502 107.389L268.952 113.252L268.971 112.262Z" fill="#6F411F"/>
<path d="M262.312 169.683L259.321 171.662L248.434 177.603L252.393 188.988L253.382 188.549L262.439 184.533L262.312 169.683Z" fill="#D3D7D6"/>
<path d="M262.439 184.533L253.382 188.549C253.818 194.951 254.225 200.823 254.637 206.313C255.719 220.766 256.828 232.569 258.538 244.428C259.728 252.678 261.209 260.955 263.174 270.169L262.439 184.533Z" fill="#1A567A"/>
<path d="M276.147 287.989H266.744C266.144 287.796 265.658 287.568 265.26 287.292C268.661 301.954 270.052 310.513 281.096 320.164H312.769C319.087 314.925 321.604 309.869 322.769 303.829C314.425 313.387 309.344 315.372 299.902 315.709C285.258 312.935 280.57 306.1 276.147 287.989Z" fill="#1A567A"/>
<path d="M324.151 287.989H276.147C280.57 306.1 285.258 312.935 299.902 315.709C309.344 315.372 314.425 313.387 322.769 303.829C323.647 299.275 323.758 294.162 324.151 287.989Z" fill="#4B7DAE"/>
<path d="M44.045 171.167C36.7467 185.327 35.3543 195.217 35.137 214.493C38.0665 211.106 41.1485 207.711 44.3728 204.333C45.0633 192.02 47.0998 186.143 51.4683 176.117C59.4643 164.486 65.6424 160.136 78.1922 154.337C78.4445 149.851 77.0805 148.681 73.7382 147.407C56.5285 154.807 51.8929 160.633 44.045 171.167Z" fill="#E4E4DC"/>
<path d="M90.0695 144.932C87.5475 147.554 87.2291 149.143 90.0695 152.357C93.4501 153.544 95.5041 153.506 99.4724 152.357C102.694 148.639 102.332 146.972 99.4724 144.437C94.9418 143.124 92.8232 143.125 90.0695 144.932Z" fill="#E4E4DC"/>
<path d="M92.544 240.963C92.544 240.963 88.09 252.348 88.5849 262.743C88.7719 266.673 89.6661 270.673 90.7062 274.129C90.7062 274.129 97.9127 271.641 101.926 269.178C101.452 267.297 101.103 265.228 100.957 262.743C100.543 255.703 102.554 245.198 103.222 241.953C103.352 241.32 103.431 240.963 103.431 240.963H92.544Z" fill="#CFDBD1"/>
<path d="M94.5235 284.029L106.401 282.543C104.902 277.094 103.058 273.671 101.926 269.178C97.9127 271.641 90.7062 274.129 90.7062 274.129C92.4175 279.815 94.5235 284.029 94.5235 284.029Z" fill="#AECCB3"/>
<path d="M101.926 269.178C103.058 273.671 104.902 277.094 106.401 282.543C108.997 279.082 110.26 277.014 111.35 272.562C109.15 271.875 106.876 271.082 104.47 270.169C103.639 269.853 102.792 269.523 101.926 269.178Z" fill="#1A557C"/>
<path d="M155.89 265.218C146.844 269.42 145.358 269.157 142.033 269.178C150.504 265.978 156.407 264.807 156.61 262.399C156.634 262.35 156.658 262.299 156.681 262.249H155.89C154.694 261.267 153.795 260.849 151.93 260.269H141.043L140.053 259.774C149.22 257.311 152.708 255.572 158.364 252.348C160.101 250.941 160.097 249.815 160.344 247.894C160.245 244.584 159.127 244.058 156.879 243.438C149.895 244.057 146.255 244.506 140.053 245.418L138.569 244.428C146.126 242.745 150.287 241.791 156.879 239.973C158.133 238.559 158.106 237.654 157.869 236.013C157.46 234.269 156.539 233.72 154.405 233.043C147.437 232.218 143.399 232.77 136.094 234.528L135.104 233.538C143.012 230.723 146.731 228.833 151.436 224.628C151.737 222.781 151.671 221.829 151.436 220.173C151.004 218.967 150.681 218.528 149.951 218.193L147.971 219.183L103.222 241.953C108.764 261.805 114.789 270.522 137.579 276.109C144.134 276.255 147.257 275.794 151.93 274.129C156.131 273.029 156.871 271.698 157.869 269.179C158.37 267.528 158.017 266.727 156.879 265.401C156.588 265.326 156.26 265.266 155.89 265.218Z" fill="#EFB58D"/>
<path d="M100.957 262.743C101.103 265.228 101.452 267.297 101.926 269.178C102.792 269.523 103.639 269.853 104.47 270.169C110.815 271.826 114.374 272.73 120.753 274.129C127.016 275.695 130.733 276.041 137.579 276.109C114.789 270.522 108.764 261.805 103.222 241.953C102.554 245.198 100.543 255.703 100.957 262.743Z" fill="#F1A677"/>
<path d="M118.125 233.538C113.684 235.958 108.895 238.441 103.431 240.963C103.431 240.963 103.352 241.32 103.222 241.953L147.971 219.183L149.951 218.193L150.446 216.708C141.494 220.395 134.223 224.502 126.472 228.88L126.196 229.036C123.59 230.508 120.927 232.011 118.125 233.538Z" fill="#6F411F"/>
<path d="M151.93 219.183L150.446 216.708L149.951 218.193C150.681 218.528 151.004 218.967 151.436 220.173C151.671 221.829 151.737 222.781 151.436 224.628C146.731 228.833 143.012 230.723 135.104 233.538L136.094 234.528C143.399 232.77 147.437 232.218 154.405 233.043C156.539 233.72 157.46 234.269 157.869 236.013C158.106 237.654 158.133 238.559 156.879 239.973C150.287 241.791 146.126 242.745 138.569 244.428L140.053 245.418C146.255 244.506 149.895 244.057 156.879 243.438C159.127 244.058 160.245 244.584 160.344 247.894C160.097 249.815 160.101 250.941 158.364 252.348C152.708 255.572 149.22 257.311 140.053 259.774L141.043 260.269H151.93C153.795 260.849 154.694 261.267 155.89 262.249H156.681C156.754 262.088 156.82 261.923 156.879 261.753C155.53 260.469 154.473 260.015 151.93 259.773H141.043C146.763 258.222 150.685 257.311 154.9 255.105C156.021 254.518 157.162 253.839 158.364 253.032C158.689 252.814 159.019 252.586 159.354 252.348C160.826 250.298 161.26 248.863 160.838 245.418C159.923 243.948 159.166 243.31 157.374 243.013C157.217 242.988 157.053 242.964 156.879 242.943L140.053 244.428L156.879 240.963C157.054 240.85 157.218 240.739 157.374 240.631C159.435 239.198 159.908 238.16 159.354 236.013C159.003 234.261 158.59 233.202 156.879 232.549C156.354 232.348 155.706 232.186 154.9 232.053C147.544 230.787 143.423 231.352 136.094 233.538C144.73 230.884 148.097 229.12 150.446 226.479C150.947 226.052 151.435 225.603 151.93 225.123C152.659 222.803 152.714 221.503 151.93 219.183Z" fill="#6F411F"/>
<path d="M142.033 269.178C145.358 269.157 146.844 269.42 155.89 265.218C157.131 264.341 157.677 263.811 157.869 262.663C157.484 262.59 157.066 262.502 156.61 262.399C156.407 264.807 150.504 265.978 142.033 269.178Z" fill="#6F411F"/>
<path d="M156.879 261.753C156.82 261.923 156.754 262.088 156.681 262.249C156.658 262.299 156.634 262.35 156.61 262.399C157.066 262.502 157.484 262.59 157.869 262.663L156.879 261.753Z" fill="#6F411F"/>
<path d="M145.992 276.603C156.436 274.517 158.3 272.431 159.354 268.188C158.902 266.544 158.345 265.778 156.879 265.401C158.017 266.727 158.37 267.528 157.869 269.179C156.871 271.698 156.131 273.029 151.93 274.129C147.257 275.794 144.134 276.255 137.579 276.109C130.733 276.041 127.016 275.695 120.753 274.129C114.374 272.73 110.815 271.826 104.47 270.169C106.876 271.082 109.15 271.875 111.35 272.562C117.986 274.789 123.885 276.101 130.866 276.603C135.312 276.923 140.197 276.914 145.992 276.603Z" fill="#6F411F"/>
<path d="M157.869 225.123C164.67 226.215 168.929 226.761 180.634 227.103C198.208 227.349 208.071 226.627 222.856 225.543C224.699 225.408 226.618 225.268 228.638 225.123H223.689H157.869Z" fill="#C9DDEA"/>
<path d="M159.354 268.188C158.3 272.431 156.436 274.517 145.992 276.603C140.197 276.914 135.312 276.923 130.866 276.603C132.661 292.421 134.308 300.59 138.569 313.691C155.558 312.762 169.689 313.485 190.037 315.709L188.362 317.689C188.118 319.505 187.913 321.11 187.769 322.639C187.689 323.48 187.628 324.297 187.59 325.114H229.108C228.893 323.338 229.56 321.982 230.618 320.164H251.403C258.192 301.697 260.043 290.4 263.174 270.169C261.209 260.955 259.728 252.678 258.538 244.428C258.538 244.428 245.959 252.348 240.515 252.348C235.072 252.348 227.371 247.894 227.371 247.894C227.169 249.467 226.934 251.169 226.658 253.032C224.982 261.784 221.526 264.586 214.286 268.683C207.368 271.274 202.784 272.099 193.006 272.148C183.993 271.899 179.892 271.132 172.716 269.673C168.158 267.553 165.328 265.516 162.818 262.399C161.459 263.003 160.31 263.127 157.869 262.663C157.677 263.811 157.131 264.341 155.89 265.218C156.26 265.266 156.588 265.326 156.879 265.401C158.345 265.778 158.902 266.544 159.354 268.188Z" fill="#4B7DAE"/>
<path d="M111.35 272.562C108.876 292.886 107.986 304.234 99.4724 325.114H106.401L115.309 315.709C123.985 314.745 131.523 314.076 138.569 313.691C134.308 300.59 132.661 292.421 130.866 276.603C123.885 276.101 117.986 274.789 111.35 272.562Z" fill="#1A567A"/>
<path d="M211.317 347.885L276.147 348.589C277.873 348.046 279.746 347.485 281.816 346.895C288.931 342.957 290.311 340.796 290.004 336.994H199.935C201.878 341.771 203.698 344.296 211.317 347.885Z" fill="#A59EB0"/>
<path d="M426.593 329.074H411.252H332.07H317.718H278.127H230.618C229.705 327.459 229.24 326.207 229.108 325.114H187.59C187.543 326.092 187.528 327.069 187.551 328.084C187.565 328.726 187.595 329.383 187.641 330.064C187.695 330.851 187.771 331.671 187.871 332.539C187.927 333.019 187.99 333.513 188.061 334.024C188.149 334.657 188.249 335.315 188.362 336.004L170.146 359.517L162.668 369.17C185.635 371.159 197.951 371.232 218.74 369.17C231.064 367.013 239.013 364.185 254.372 357.29C262.272 353.718 267.26 351.387 276.147 348.589L211.317 347.885C203.698 344.296 201.878 341.771 199.935 336.994H290.004C290.311 340.796 288.931 342.957 281.816 346.895C282.385 346.732 282.97 346.567 283.571 346.4L308.81 340.46C324.204 337.414 334.707 336.514 354.834 335.509C381.287 336.01 396.027 336.185 420.16 334.024C432.864 332.454 439.974 331.749 452.822 328.084C453.603 327.056 453.27 326.388 451.987 325.114H443.234C442.525 327.295 440.45 329.074 440.45 329.074H426.593Z" fill="#4D5530"/>
<path d="M106.401 325.114H99.4724L41.5706 325.609C46.9162 330.967 51.2457 333.231 64.8303 334.024C79.1598 334.334 86.0506 335.093 92.9188 339.222L96.5031 335.471L106.401 325.114Z" fill="#4D5530"/>
<path d="M151.93 386C196.482 385.512 225.838 386.255 251.403 381.545C271.08 376.88 282.208 374.242 292.973 371.645C314.66 367.328 328.168 365.621 356.319 364.715C380.862 364.952 394.385 363.087 417.685 352.835C433.612 346.23 442.416 343.526 457.771 341.45C467.415 338.974 472.368 337.413 473.112 331.549C470.638 327.564 468.192 325.991 460.74 325.114H451.987C453.27 326.388 453.603 327.056 452.822 328.084C439.974 331.749 432.864 332.454 420.16 334.024C396.027 336.185 381.287 336.01 354.834 335.509C334.707 336.514 324.204 337.414 308.81 340.46L283.571 346.4C282.97 346.567 282.385 346.732 281.816 346.895C279.746 347.485 277.873 348.046 276.147 348.589C267.26 351.387 262.272 353.718 254.372 357.29C239.013 364.185 231.064 367.013 218.74 369.17C197.951 371.232 185.635 371.159 162.668 369.17L151.93 383.03V386Z" fill="#6E7959"/>
<path d="M82.6462 378.503C79.9611 378.21 77.1716 377.904 74.2331 377.585C73.816 374.872 73.5689 372.641 73.4556 370.655C73.2103 366.353 73.5923 363.197 74.2331 358.775L92.9188 339.222C86.0506 335.093 79.1598 334.334 64.8303 334.024C51.2457 333.231 46.9162 330.967 41.5706 325.609C31.0835 326.157 24.6235 326.016 21.8867 332.539C25.3799 337.41 27.4794 340.114 36.6217 343.925C44.8367 348.041 49.3012 350.59 51.9632 364.22C54.1446 371.873 56.5479 375.898 74.2331 380.06C93.7717 383.501 107.523 385.141 151.93 386V383.03C119.571 382.398 104.598 380.894 82.6462 378.503Z" fill="#6E7959"/>
<path d="M188.552 194.433C190.783 191.39 192.19 190.408 194.986 189.977C198.695 189.593 200.071 190.191 201.914 191.957C203.071 189.347 204.296 188.501 208.348 188.987C210.642 189.651 211.843 190.263 213.791 191.957C215.504 194.642 215.799 196.141 215.276 198.888C214.958 201.298 213.924 202.48 210.822 204.333C211.437 206.623 211.22 207.815 209.832 209.778C208.629 211.353 207.442 211.907 204.389 212.253C201.451 211.628 200.154 210.359 197.955 207.798H194.986C192.011 207.106 190.664 205.989 188.552 203.343C187.235 199.863 187.582 197.912 188.552 194.433Z" fill="#CFDBD1"/>
<path d="M484 132.557C483.152 129.124 481.63 127.874 476.577 127.112H276.147C272.176 128.645 270.73 129.706 269.714 132.062H272.188L271.198 284.673C272.516 286.253 273.908 287.079 276.147 287.989H324.151H341.472V230.568L341.481 230.556C342.309 229.416 342.776 228.773 345.431 228.093H354.339H407.292C410.116 228.204 410.853 228.833 411.252 230.568V287.989H479.546C482.413 287.11 483.371 286.114 484 283.534V132.557Z" fill="#4EEAC5"/>
<path d="M262.29 132.062V167.208L262.312 169.683L262.439 184.533L263.174 270.169L263.28 282.544C263.589 284.946 263.944 286.38 265.26 287.292C265.658 287.568 266.144 287.796 266.744 287.989H276.147C273.908 287.079 272.516 286.253 271.198 284.673C270.707 284.083 270.225 283.388 269.714 282.544V132.062C270.73 129.706 272.176 128.645 276.147 127.112H269.714C265.466 127.345 263.749 128.314 262.29 132.062Z" fill="#6EB87B"/>
<path d="M269.714 132.062V282.544C270.225 283.388 270.707 284.083 271.198 284.673L272.188 132.062H269.714Z" fill="#C2FFCD"/>
<path d="M317.718 329.074C313.633 325.245 313.719 323.079 316.284 320.164H312.769H281.096H278.127C276.116 323.304 276.009 325.24 278.127 329.074H317.718Z" fill="#4EEAC4"/>
<path d="M278.127 329.074C276.009 325.24 276.116 323.304 278.127 320.164H251.403H230.618C229.56 321.982 228.893 323.338 229.108 325.114C229.24 326.207 229.705 327.459 230.618 329.074H278.127Z" fill="#6EB87B"/>
<path fill-rule="evenodd" clip-rule="evenodd" d="M163.313 70.6816C156.766 76.969 154.726 81.1595 154.405 89.9868C155.096 97.3075 158.364 104.342 166.282 108.302C174.2 112.262 183.387 112.467 193.006 104.342C197.835 98.6416 199.526 94.8589 198.945 86.0268C198.237 82.4712 197.433 79.8588 196.199 77.6117C195.821 76.9229 195.402 76.2684 194.934 75.6316C194.369 74.8646 193.732 74.1232 193.006 73.3783C192.15 72.5001 191.169 71.6171 190.037 70.6816C185.045 67.1604 182.499 66.6039 178.16 66.7215C177.223 69.042 175.964 69.915 173.211 71.1766L171.231 72.1666C167.641 72.5312 165.917 72.1864 163.313 70.6816ZM183.603 101.372C180.368 104.258 177.608 104.979 172.221 105.827C167.378 105.618 164.937 104.307 160.838 100.877C158.029 97.9326 157.434 95.7914 156.384 91.9668C156.207 88.8766 156.53 87.2875 157.374 84.5417C159.332 81.1075 160.662 79.5223 163.313 77.1167C166.226 75.0745 167.938 74.2403 171.231 73.6516C175.413 73.4037 177.859 73.5439 183.603 77.6117C186.873 81.8245 188.185 84.729 189.047 91.4718C188.62 95.3038 187.311 97.4727 183.603 101.372Z" fill="#4EEAC4"/>
<path d="M276.147 87.0164C283.794 78.8078 285.727 73.3042 282.086 60.7811C277.255 53.2213 274.191 50.3141 270.209 50.1114C269.28 50.0642 268.302 50.1639 267.239 50.386C273.216 51.7723 275.864 54.5225 280.106 60.7811C280.578 68.7426 279.739 72.4518 276.147 77.6117V87.0164Z" fill="#4EEAC4"/>
<path d="M278.127 71.1766C278.739 67.3215 278.902 65.1546 278.622 61.2765H271.693C273.414 66.5682 274.315 69.6305 275.157 76.2353C276.461 74.7534 277.303 73.2912 278.127 71.1766Z" fill="#4EEAC4"/>
<path d="M270.703 60.2865H278.127C275.345 56.6273 273.312 54.8216 268.229 52.3664L270.703 60.2865Z" fill="#4EEAC4"/>
<path fill-rule="evenodd" clip-rule="evenodd" d="M145.992 139.313C121.7 135.411 107.75 134.42 81.6564 137.012C59.3675 141.714 48.4631 146.583 35.137 163.847C29.0008 176.398 26.1014 183.981 26.229 202.848L26.4081 225.123C29.1406 221.61 32.0543 218.056 35.137 214.493C35.3543 195.217 36.7467 185.327 44.045 171.167C51.8929 160.633 56.5285 154.807 73.7382 147.407C77.0805 148.681 78.4445 149.851 78.1922 154.337C65.6424 160.136 59.4643 164.486 51.4683 176.117C47.0998 186.143 45.0633 192.02 44.3728 204.333C70.6649 176.785 106.415 150.376 145.992 139.313ZM90.0695 152.357C87.2291 149.143 87.5475 147.554 90.0695 144.932C92.8232 143.125 94.9418 143.124 99.4724 144.437C102.332 146.972 102.694 148.639 99.4724 152.357C95.5041 153.506 93.4501 153.544 90.0695 152.357Z" fill="#6EB87B"/>
<path d="M92.544 240.963H103.431C108.895 238.441 113.684 235.958 118.125 233.538L118.278 216.708C118.278 216.708 117.639 216.137 117.288 215.718C116.889 215.24 115.713 216.512 115.309 216.708C100.003 226.627 90.4471 232.869 73.2434 244.113C78.9848 242.555 85.0107 241.382 92.544 240.963Z" fill="#6EB87B"/>
<path d="M94.5235 284.029C87.6903 289.443 81.8861 290.887 70.274 292.444C54.1949 293.707 44.8827 293.33 35.137 292.053C36.4897 305.179 37.1511 312.539 41.5706 325.609L99.4724 325.114C107.986 304.234 108.876 292.886 111.35 272.562C110.26 277.014 108.997 279.082 106.401 282.543L94.5235 284.029Z" fill="#6EB87B"/>
<path d="M223.689 225.123H228.638C228.634 225.665 228.631 226.192 228.627 226.707C228.58 233.896 228.548 238.726 227.371 247.894C227.371 247.894 235.072 252.348 240.515 252.348C245.959 252.348 258.538 244.428 258.538 244.428C256.828 232.569 255.719 220.766 254.637 206.313L226.658 204.333L223.689 225.123Z" fill="#6EB87B"/>
<path d="M82.6462 357.983C108.533 355.853 124.866 357.552 151.93 360.755L170.146 339.222L96.5031 335.471L92.9188 339.222L74.2331 358.775C77.1561 358.468 79.9529 358.205 82.6462 357.983Z" fill="#4EEAC4"/>
<path d="M115.309 315.709L106.401 325.114L96.5031 335.471L170.146 339.222L188.362 317.689L190.037 315.709C169.689 313.485 155.558 312.762 138.569 313.691C131.523 314.076 123.985 314.745 115.309 315.709Z" fill="#4EEAC4"/>
<path d="M82.6462 357.983C79.9529 358.205 77.1561 358.468 74.2331 358.775C73.5923 363.197 73.2103 366.353 73.4556 370.655L81.3337 367.685C81.3401 367.19 81.3575 366.696 81.3858 366.2C81.423 365.547 81.479 364.89 81.5537 364.22C81.6431 363.418 81.7592 362.597 81.9019 361.745C81.9828 361.261 82.0723 360.767 82.1703 360.26C82.3114 359.53 82.4701 358.773 82.6462 357.983Z" fill="#4EEAC4"/>
<path d="M74.2331 377.585C77.1716 377.904 79.9611 378.21 82.6462 378.503C82.4661 377.665 82.3048 376.867 82.1621 376.1C82.0349 375.417 81.9225 374.758 81.8248 374.12C81.7472 373.613 81.6789 373.119 81.6197 372.635C81.558 372.13 81.5062 371.636 81.4644 371.15C81.4324 370.779 81.4063 370.412 81.3858 370.049C81.3503 369.418 81.3321 368.798 81.3309 368.18C81.3306 368.015 81.3316 367.85 81.3337 367.685L73.4556 370.655C73.5689 372.641 73.816 374.872 74.2331 377.585Z" fill="#4EEAC4"/>
<path d="M430.057 323.134C430.161 325.818 426.593 329.074 426.593 329.074H440.45C440.45 329.074 442.525 327.295 443.234 325.114C443.441 324.477 443.531 323.806 443.419 323.134C442.924 320.164 440.45 319.669 440.45 319.669H428.45C429.249 320.685 430.012 321.955 430.057 323.134Z" fill="#4EEAC4"/>
<path d="M172.221 104.342C176.861 103.392 179.284 102.618 182.613 99.8869C185.433 96.5461 186.239 94.7043 186.573 91.4718C186.697 88.04 186.356 86.1851 184.593 83.0567C182.352 79.788 180.592 78.3318 176.769 76.2353C173.254 75.1451 171.282 75.2233 167.767 76.2353C164.012 78.0576 162.387 79.5513 160.344 83.0567C159.175 85.9773 158.642 87.728 158.364 91.4718C158.96 94.4663 159.397 96.1851 161.828 99.8869C165.372 102.144 167.388 103.38 172.221 104.342Z" fill="#6EB87B"/>
<path fill-rule="evenodd" clip-rule="evenodd" d="M172.221 105.827C177.608 104.979 180.368 104.258 183.603 101.372C187.311 97.4727 188.62 95.3038 189.047 91.4718C188.185 84.729 186.873 81.8245 183.603 77.6117C177.859 73.5439 175.413 73.4037 171.231 73.6516C167.938 74.2403 166.226 75.0745 163.313 77.1167C160.662 79.5223 159.332 81.1075 157.374 84.5417C156.53 87.2875 156.207 88.8766 156.384 91.9668C157.434 95.7914 158.029 97.9326 160.838 100.877C164.937 104.307 167.378 105.618 172.221 105.827ZM182.613 99.8869C179.284 102.618 176.861 103.392 172.221 104.342C167.388 103.38 165.372 102.144 161.828 99.8869C159.397 96.1851 158.96 94.4663 158.364 91.4718C158.642 87.728 159.175 85.9773 160.344 83.0567C162.387 79.5513 164.012 78.0576 167.767 76.2353C171.282 75.2233 173.254 75.1451 176.769 76.2353C180.592 78.3318 182.352 79.788 184.593 83.0567C186.356 86.1851 186.697 88.04 186.573 91.4718C186.239 94.7043 185.433 96.5461 182.613 99.8869Z" fill="#C2FFCD"/>
<path d="M267.239 50.386C268.302 50.1639 269.28 50.0642 270.209 50.1114C269.58 38.6227 268.319 32.3343 262.785 21.6755C252.639 7.29395 246.665 3.05763 235.566 1.38032C219.657 -0.978328 211.43 -0.415729 197.955 3.85535C183.899 9.68155 177.557 14.4991 168.757 25.6361C163.185 36.0574 161.024 42.232 161.828 54.8414L163.313 70.6816C165.917 72.1864 167.641 72.5312 171.231 72.1666C168.709 60.22 168.688 54.5259 168.757 44.4463C169.38 36.655 170.675 33.3194 173.211 27.6161C177.273 21.5514 179.666 18.7965 184.098 14.746C190.045 10.1955 193.764 8.18463 200.924 5.34089C211.646 2.46328 217.51 1.62652 227.648 1.87585C240.02 2.27385 245.065 5.67264 249.423 8.80592C236.772 4.1945 230.054 3.27724 218.245 3.85535C208.134 5.34845 203.597 6.55269 197.46 9.30093C191.344 11.9987 188.081 14.0187 182.613 18.706C177.658 24.0993 175.554 27.4402 173.211 34.0512C171.099 42.4458 170.335 47.5514 171.231 58.8015C171.75 63.6441 172.176 66.3605 173.211 71.1766C175.964 69.915 177.223 69.042 178.16 66.7215C176.388 59.9655 176.046 55.4509 176.675 45.9313L176.769 45.5279C179.168 35.2997 180.542 29.4416 188.552 21.6755C198.228 15.0824 204.568 11.8257 222.699 9.30093C232.335 9.43972 237.573 10.253 246.454 13.756C253.112 17.9219 256.436 20.6668 260.311 27.6161C262.472 33.749 263.661 37.1679 264.27 41.9713C263.915 42.5009 263.45 42.9196 262.785 43.2505C265.101 45.7402 266.114 47.2787 267.239 50.386Z" fill="#4EEAC4"/>
<path d="M218.245 3.85535C230.054 3.27724 236.772 4.1945 249.423 8.80592C245.065 5.67264 240.02 2.27385 227.648 1.87585C217.51 1.62652 211.646 2.46328 200.924 5.34089C193.764 8.18463 190.045 10.1955 184.098 14.746C179.666 18.7965 177.273 21.5514 173.211 27.6161C170.675 33.3194 169.38 36.655 168.757 44.4463C168.688 54.5259 168.709 60.22 171.231 72.1666L173.211 71.1766C172.176 66.3605 171.75 63.6441 171.231 58.8015C170.335 47.5514 171.099 42.4458 173.211 34.0512C175.554 27.4402 177.658 24.0993 182.613 18.706C188.081 14.0187 191.344 11.9987 197.46 9.30093C203.597 6.55269 208.134 5.34845 218.245 3.85535Z" fill="#C2FFCC"/>
</svg>
