<svg width="14" height="17" viewBox="0 0 14 17" fill="none" xmlns="http://www.w3.org/2000/svg">
<path d="M7 1.5C7.66304 1.5 8.29893 1.76339 8.76777 2.23223C9.23661 2.70107 9.5 3.33696 9.5 4V4.5H4.5V4C4.5 3.33696 4.76339 2.70107 5.23223 2.23223C5.70107 1.76339 6.33696 1.5 7 1.5ZM10.5 4.5V4C10.5 3.07174 10.1313 2.1815 9.47487 1.52513C8.8185 0.868749 7.92826 0.5 7 0.5C6.07174 0.5 5.1815 0.868749 4.52513 1.52513C3.86875 2.1815 3.5 3.07174 3.5 4V4.5H0V14.5C0 15.0304 0.210714 15.5391 0.585786 15.9142C0.960859 16.2893 1.46957 16.5 2 16.5H12C12.5304 16.5 13.0391 16.2893 13.4142 15.9142C13.7893 15.5391 14 15.0304 14 14.5V4.5H10.5ZM1 5.5H13V14.5C13 14.7652 12.8946 15.0196 12.7071 15.2071C12.5196 15.3946 12.2652 15.5 12 15.5H2C1.73478 15.5 1.48043 15.3946 1.29289 15.2071C1.10536 15.0196 1 14.7652 1 14.5V5.5Z" fill="black"/>
</svg>
